<!-- Generated by IcoMoon.io -->
<svg version="1.1" xmlns="http://www.w3.org/2000/svg" width="43" height="32" viewBox="0 0 43 32">
<path d="M33.486 1.714c-1.943-0.114-5.943-0.229-12-0.229h-0.8c-5.829 0-9.714 0.114-11.657 0.343-2.629 0.229-4.457 0.914-5.486 1.829-0.914 0.8-1.6 2.286-1.829 4.229-0.114 1.257-0.229 3.886-0.229 7.886v0.571c0 3.771 0.114 6.4 0.343 7.657 0.343 1.829 0.914 3.2 2.057 4 1.143 0.914 3.086 1.486 5.829 1.714 1.943 0.114 5.943 0.229 12 0.229h0.8c5.829 0 9.714-0.114 11.657-0.343 2.629-0.229 4.457-0.914 5.486-1.829 0.914-0.8 1.6-2.286 1.829-4.229 0.114-1.257 0.229-3.886 0.229-7.886v-0.571c0-3.771-0.114-6.4-0.343-7.657-0.343-1.829-0.914-3.2-2.057-4-1.143-0.914-3.086-1.486-5.829-1.714zM29.028 15.771l-12.571 7.543v-15.086l12.571 7.543z"></path>
</svg>
